<?xml version="1.0" encoding="UTF-8"?>
<svg width="663px" height="662px" viewBox="0 0 663 662" version="1.1" xmlns="http://www.w3.org/2000/svg" xmlns:xlink="http://www.w3.org/1999/xlink">
    <title>Group</title>
    <g id="Page-1" stroke="none" stroke-width="1" fill="none" fill-rule="evenodd" fill-opacity="0.8">
        <g id="Group">
            <g id="Group-2" transform="translate(200.000000, 0.000000)">
                <rect id="Rectangle" fill="#7928CA" x="0" y="0" width="200" height="200"></rect>
                <polygon id="Polygon" fill="#FF0080" points="200 2.33863364e-14 200 200 0 200"></polygon>
            </g>
            <g id="Group-2" transform="translate(0.000000, 200.000000)">
                <rect id="Rectangle" fill="#7928CA" x="0" y="0" width="200" height="200"></rect>
                <polygon id="Polygon" fill="#FF0080" points="200 2.33863364e-14 200 200 0 200"></polygon>
            </g>
            <g id="Group-2">
                <rect id="Rectangle" fill="#7928CA" x="0" y="0" width="200" height="200"></rect>
                <polygon id="Polygon" fill="#FF0080" points="200 2.33863364e-14 200 200 0 200"></polygon>
            </g>
            <g id="Group-2" transform="translate(0.000000, 400.000000)">
                <rect id="Rectangle" fill="#7928CA" x="0" y="0" width="200" height="200"></rect>
                <polygon id="Polygon" fill="#FF0080" points="200 2.33863364e-14 200 200 0 200"></polygon>
            </g>
            <g id="Group-2" transform="translate(200.000000, 400.000000)">
                <rect id="Rectangle" fill="#7928CA" x="0" y="0" width="200" height="200"></rect>
                <polygon id="Polygon" fill="#FF0080" points="200 2.33863364e-14 200 200 0 200"></polygon>
            </g>
            <g id="Group-2" transform="translate(400.000000, 0.000000)">
                <rect id="Rectangle" fill="#7928CA" x="0" y="0" width="200" height="200"></rect>
                <polygon id="Polygon" fill="#FF0080" points="200 2.33863364e-14 200 200 0 200"></polygon>
            </g>
            <g id="Group-2" transform="translate(400.000000, 200.000000)">
                <rect id="Rectangle" fill="#7928CA" x="0" y="0" width="200" height="200"></rect>
                <polygon id="Polygon" fill="#FF0080" points="200 2.33863364e-14 200 200 0 200"></polygon>
            </g>
            <g id="Group-2" transform="translate(463.000000, 462.000000)">
                <rect id="Rectangle" fill="#7928CA" x="0" y="0" width="200" height="200"></rect>
                <polygon id="Polygon" fill="#FF0080" points="200 2.33863364e-14 200 200 0 200"></polygon>
            </g>
        </g>
    </g>
</svg>